<?xml version="1.0" encoding="utf-8"?>
<!-- Generator: Adobe Illustrator 23.1.0, SVG Export Plug-In . SVG Version: 6.00 Build 0)  -->
<svg version="1.1" id="Layer_1" xmlns="http://www.w3.org/2000/svg" xmlns:xlink="http://www.w3.org/1999/xlink" x="0px" y="0px"
	 viewBox="0 0 277 276.9" style="enable-background:new 0 0 277 276.9;" xml:space="preserve">
<style type="text/css">
	.st0{fill:#FA4A26;}
	.st1{fill:#E42F28;}
	.st2{fill:#BD1F28;}
	.st3{fill:#DC2E28;}
	.st4{opacity:0.2;}
	.st5{opacity:0.8;fill:url(#SVGID_1_);}
</style>
<g>
	<g>
		<g>
			<path class="st0" d="M276.6,149.2c-0.1,1.5-0.3,3-0.4,4.6c-2.2,20.5-9.1,40.8-20.7,59c-3.2,5.1-6.8,9.9-10.7,14.7
				c-0.4,0.5-0.9,1-1.3,1.6c-8.4,9.8-18,18.1-28.2,24.9c-3.5,2.4-7.2,4.5-10.9,6.5c-29.7,16-64.2,20.5-96.7,13.1l-0.1,0
				c-0.3-0.1-0.6-0.1-0.9-0.2c-10.4-2.5-20.7-6.2-30.5-11.2c-9.8-5-19.2-11.2-28-18.7c-2.4-2.1-4.7-4.2-6.9-6.4
				c-7.3-7.2-13.6-15-18.9-23.3c-4.5-6.9-8.3-14.2-11.5-21.7c-2.7-6.5-4.9-13.1-6.6-19.8c-1.5-6-2.6-12-3.2-18.1
				c-0.9-7.7-1.1-15.6-0.7-23.3c0.9-16,4.5-31.9,11-46.9c3.4-7.9,7.5-15.5,12.5-22.8c3-4.5,6.3-8.8,10-13c5.4-6.3,11.3-12,17.5-17.1
				c2.5-2.1,5.1-4,7.7-5.9C68,18.7,77.7,13.6,87.8,9.6c15.1-5.9,31.1-9.1,47.1-9.6c8.2-0.2,16.5,0.3,24.6,1.5
				c9.5,1.4,18.9,3.9,28,7.3c9.8,3.7,19.3,8.6,28.3,14.7c4.5,3,8.9,6.4,13.1,10c7.5,6.4,14.1,13.5,19.8,21.1
				c5.5,7.2,10.2,14.8,14.1,22.8c8.4,17.2,13.1,35.8,14,54.7c0,0,0,0,0,0.1c0,0.5,0,1,0.1,1.6C277.1,138.9,277,144,276.6,149.2z"/>
			<path class="st1" d="M179.6,75.9c0,0-36.1,2.4-64.3,26.3C87,126.1,38,130.1,38,130.1s24.7-7.1,30.2-13.7c0,0-37.2,16.2-68,14.3
				c0.9-16,4.5-31.9,11-46.9c11.7-8.3,34.1-21.2,62.9-23.9c0,0-7.9,3.9-11.4,9.8c0.3-0.1,19.1-9.4,50.6-11.9
				c31.8-2.6,65.5-18.8,72.9-33c0,0-0.4,9.3-9.4,17.9c0.4-0.1,24-6.9,39-19c4.5,3,8.9,6.4,13.1,10c7.5,6.4,14.1,13.5,19.8,21.1
				c-13.7,11.4-41.8,28.9-87.5,33C161.3,87.7,170.9,86.1,179.6,75.9z"/>
			<path class="st1" d="M187.5,8.9c-9.7,7.9-27.3,23.7-49,32.2c-28,11-59.2,7.7-59.2,7.7l7.1-2.1C55.6,46.4,32.2,56.7,23.7,61
				c3-4.5,6.3-8.8,10-13c5.4-6.3,11.3-12,17.5-17.1c2.5-2.1,5.1-4,7.7-5.9c11.4-2.3,25.4-3.9,42.1-3.9c19.1,0,37.5-7.3,37.5-7.3
				c-5.9,0.8-11.9-1.3-11.9-1.3c13.9-2.4,25.8-7.4,32.9-10.9C169,3,178.4,5.5,187.5,8.9z"/>
			<path class="st1" d="M217.2,153.3c0,0-38.8,25.9-92.7,30.1c0,0,15.8-8.6,18-11.8c-6.8,3.3-18.2,9.8-40.6,13.7
				c-50.7,8.8-71.8,9.6-91.2,6.6c-2.7-6.5-4.9-13.1-6.6-19.8c-1.5-6-2.6-12-3.2-18.1c16.7,1.4,46.5,2.6,71.1-3.5
				c36.3-9.1,75-32.6,75-32.6s-0.5,8.9-13.3,16.2c0,0,107-16.8,129.2-56.6c8.4,17.2,13.1,35.8,14,54.7c0,0,0,0,0,0.1
				c0,0.5,0,1,0.1,1.6c-9.8,9.1-30.9,23.5-70.8,29.3C206.1,163.1,219.8,155.8,217.2,153.3z"/>
			<path class="st1" d="M276.1,153.7c-2.2,20.5-9.1,40.8-20.7,59c-3.2,5.1-6.8,9.9-10.7,14.7c-15.5,7.8-32.8,14.1-46.3,16.4
				c0,0,14.5-5.5,21.6-12.5c-0.3,0.2-19.4,11.5-42.3,15.7c-23.1,4.3-54.1-0.8-75.3,6.6c0,0,13.7,1,21.6,2.9c0,0-10.6,0.2-23.4,3.1
				c-5.7,1.3-14.1,1.8-24.5,2.4c-9.8-5-19.2-11.2-28-18.7c-2.4-2.1-4.7-4.2-6.9-6.4c-7.3-7.2-13.6-15-18.9-23.3
				c10.1-1.8,27.7-3.8,45.9-0.5c27.9,5.1,70.4-14.1,70.4-14.1s-5.5,7.1-14,11.4c0,0,27.2-3.3,52.7-16.9
				C197.8,182.5,247.7,175.7,276.1,153.7z"/>
			<path class="st1" d="M204.2,260.4c-29.7,16-64.2,20.5-96.7,13.1l-0.1,0c-0.3-0.1-0.6-0.1-0.9-0.2c4.9-2.8,18.8-9.6,33.7-6
				C154.7,270.6,184.4,267.1,204.2,260.4z"/>
			<g>
				<path class="st2" d="M94.2,88.4c0,17.6-14.3,31.8-31.8,31.8c-8,0-15.2-2.9-20.8-7.8l0,0c-6.7-5.8-11-14.5-11-24.1
					c0-17.6,14.3-31.8,31.8-31.8c9.6,0,18.2,4.3,24.1,11c0,0,0,0,0,0C91.3,73.1,94.2,80.4,94.2,88.4z"/>
				<path class="st3" d="M94.2,88.4c0,17.6-14.3,31.8-31.8,31.8c-8,0-15.2-2.9-20.8-7.8l0,0c-4.8-5.6-7.8-12.9-7.8-20.8
					C33.8,74,48,59.7,65.6,59.7c8,0,15.3,2.9,20.9,7.8c0,0,0,0,0,0C91.3,73.1,94.2,80.4,94.2,88.4z"/>
			</g>
			<g>
				<path class="st2" d="M205.4,47.9c0,11.3-9.2,20.5-20.5,20.5c-5.1,0-9.8-1.9-13.4-5l0,0c-4.3-3.8-7.1-9.3-7.1-15.5
					c0-11.3,9.2-20.5,20.5-20.5c6.2,0,11.7,2.7,15.5,7.1c0,0,0,0,0,0C203.6,38.1,205.4,42.8,205.4,47.9z"/>
				<path class="st3" d="M205.4,47.9c0,11.3-9.2,20.5-20.5,20.5c-5.1,0-9.8-1.9-13.4-5l0,0c-3.1-3.6-5-8.3-5-13.4
					c0-11.3,9.2-20.5,20.5-20.5c5.1,0,9.8,1.9,13.4,5c0,0,0,0,0,0C203.6,38.1,205.4,42.8,205.4,47.9z"/>
			</g>
			<g>
				<path class="st2" d="M249.7,130.8c0,18.1-14.7,32.8-32.8,32.8c-8.2,0-15.7-3-21.5-8l0,0c-6.9-6-11.3-14.9-11.3-24.8
					c0-18.1,14.7-32.8,32.8-32.8c9.9,0,18.8,4.4,24.8,11.3c0,0,0,0,0,0C246.7,115.1,249.7,122.6,249.7,130.8z"/>
				<path class="st3" d="M249.7,130.8c0,18.1-14.7,32.8-32.8,32.8c-8.2,0-15.7-3-21.5-8l0,0c-5-5.8-8-13.3-8-21.5
					c0-18.1,14.7-32.8,32.8-32.8c8.2,0,15.7,3,21.5,8c0,0,0,0,0,0C246.7,115.1,249.7,122.6,249.7,130.8z"/>
			</g>
			<g>
				<path class="st2" d="M73,192.5c0,9.6-7.8,17.4-17.5,17.4c-4.4,0-8.4-1.6-11.4-4.3l0,0c-3.7-3.2-6-7.9-6-13.2
					c0-9.6,7.8-17.5,17.4-17.5c5.3,0,10,2.3,13.2,6c0,0,0,0,0,0C71.4,184.1,73,188.1,73,192.5z"/>
				<path class="st3" d="M73,192.5c0,9.6-7.8,17.4-17.5,17.4c-4.4,0-8.4-1.6-11.4-4.3l0,0c-2.6-3.1-4.3-7.1-4.3-11.4
					c0-9.6,7.8-17.4,17.4-17.4c4.4,0,8.4,1.6,11.4,4.3c0,0,0,0,0,0C71.4,184.1,73,188.1,73,192.5z"/>
			</g>
			<g>
				<path class="st2" d="M143.5,90.4c0,5.1-4.1,9.2-9.2,9.2c-2.3,0-4.4-0.8-6-2.2l0,0c-1.9-1.7-3.2-4.2-3.2-6.9
					c0-5.1,4.1-9.2,9.2-9.2c2.8,0,5.3,1.2,6.9,3.2c0,0,0,0,0,0C142.7,86,143.5,88.1,143.5,90.4z"/>
				<path class="st3" d="M143.5,90.4c0,5.1-4.1,9.2-9.2,9.2c-2.3,0-4.4-0.8-6-2.2l0,0c-1.4-1.6-2.2-3.7-2.2-6c0-5.1,4.1-9.2,9.2-9.2
					c2.3,0,4.4,0.8,6,2.2c0,0,0,0,0,0C142.7,86,143.5,88.1,143.5,90.4z"/>
			</g>
			<g>
				<path class="st2" d="M250.8,195.1c0,8.2-6.6,14.8-14.8,14.8c-3.7,0-7.1-1.4-9.7-3.6l0,0c-3.1-2.7-5.1-6.7-5.1-11.2
					c0-8.2,6.6-14.8,14.8-14.8c4.5,0,8.5,2,11.2,5.1c0,0,0,0,0,0C249.4,188,250.8,191.4,250.8,195.1z"/>
				<path class="st3" d="M250.8,195.1c0,8.2-6.6,14.8-14.8,14.8c-3.7,0-7.1-1.4-9.7-3.6l0,0c-2.2-2.6-3.6-6-3.6-9.7
					c0-8.2,6.6-14.8,14.8-14.8c3.7,0,7.1,1.4,9.7,3.6c0,0,0,0,0,0C249.4,188,250.8,191.4,250.8,195.1z"/>
			</g>
			<g>
				<path class="st2" d="M180.9,232.2c0,15.4-12.5,28-28,28c-7,0-13.4-2.6-18.3-6.8l0,0c-5.9-5.1-9.7-12.7-9.7-21.1
					c0-15.4,12.5-28,28-28c8.4,0,16,3.7,21.2,9.7c0,0,0,0,0,0C178.3,218.9,180.9,225.3,180.9,232.2z"/>
				<path class="st3" d="M180.9,232.2c0,15.4-12.5,28-28,28c-7,0-13.4-2.6-18.3-6.8l0,0c-4.2-4.9-6.8-11.3-6.8-18.3
					c0-15.4,12.5-28,28-28c7,0,13.4,2.6,18.3,6.8c0,0,0,0,0,0C178.3,218.9,180.9,225.3,180.9,232.2z"/>
			</g>
		</g>
		<path class="st4" d="M228.9,33.6c57.9,50,64.4,137.4,14.4,195.3c-34.7,40.2-87.5,55.6-135.9,44.5c76.4,4.1,137.3-99.4,95.6-173.5
			C150.6,6.7,51.2,31,51.2,31C102.3-10.6,177.3-10.9,228.9,33.6z"/>
		
			<linearGradient id="SVGID_1_" gradientUnits="userSpaceOnUse" x1="679.2841" y1="1625.2592" x2="632.1884" y2="1496.0957" gradientTransform="matrix(-8.770000e-02 0.9961 -0.9961 -8.770000e-02 1600.4266 -345.9727)">
			<stop  offset="0" style="stop-color:#FFFFFF"/>
			<stop  offset="1" style="stop-color:#FFFFFF;stop-opacity:0"/>
		</linearGradient>
		<path class="st5" d="M28.7,75.8c-13.6,25.3-41,94.7,22.5,158.5c6.2,6.2,16.4,5.7,21.9-1l2.7-3.3c4.9-5.9,4.4-14.6-1.1-20
			c-16.3-15.9-43.6-54.6-19.1-122.2c3-8.3-1.9-17.4-10.4-19.4l0,0C38.7,66.8,31.9,69.9,28.7,75.8z"/>
	</g>
</g>
</svg>
