<?xml version="1.0" encoding="utf-8"?>
<!-- Generator: Adobe Illustrator 24.0.2, SVG Export Plug-In . SVG Version: 6.00 Build 0)  -->
<svg version="1.1" id="Layer_1" xmlns="http://www.w3.org/2000/svg" xmlns:xlink="http://www.w3.org/1999/xlink" x="0px" y="0px"
	 viewBox="0 0 1920 1080" style="enable-background:new 0 0 1920 1080;" xml:space="preserve">
<style type="text/css">
	.st0{fill:#F68F37;}
	.st1{fill:#F1BC02;}
	.st2{fill:#F9F8A8;}
	.st3{fill:#E42F28;}
	.st4{opacity:0.2;}
	.st5{fill:#FFFFFF;}
	.st6{fill:#003557;}
	.st7{fill:#34C8CB;}
	.st8{opacity:0.1;}
	.st9{fill:#02EEED;}
</style>
<g>
	<g>
		<path class="st0" d="M938.1,571.3c-6.2,2.3-10.4,3-21.8,10.6c0,0,0,0-0.1,0.1c0,0,0-0.1,0.1-0.1c8-11.2,8.9-15.3,11.4-21.4
			c2.5-6.1,9.7-9.3,9.7-9.3l5.6,5l0,0l4.8,5.8C947.8,561.9,944.3,569,938.1,571.3z"/>
		<path class="st1" d="M925,573.4c2-3.6,3-6.4,4.1-9.2c0.4-0.9,0.7-1.9,1.1-2.9c1.3-3.2,6.1-7.1,8.1-8.2l3.6,3.7l3.7,3.8
			c-1.3,1.9-5,6.8-8.3,8c-1,0.4-2,0.7-2.9,1C931.4,570.6,928.6,571.6,925,573.4z"/>
		<path class="st2" d="M929.9,568.6c0.7-1.4,1.3-2.8,1.9-4.1l0,0c0.5-1,0.9-2.1,1.5-3.1c1-2,4-4.9,6.3-6.8l4.4,4.6
			c-2.1,2.5-4.9,5.5-6.8,6.3c-1.1,0.5-2.2,0.9-3.2,1.3l0,0C932.8,567.4,931.4,568,929.9,568.6z"/>
	</g>
	<g>
		<path class="st3" d="M944.7,535c-1.4-0.2-2.9,0-4.4,0.4c-7.4,1.9-15.1,9.5-15.1,9.5s0,0,0,0c-0.1-0.2-4.1-7.6,1.4-16.9
			c2.9-4.9,7.5-7.7,11.3-9.2c0.7-0.3,1.3-0.1,1.7,0.4c0.3,0.3,0.5,0.7,0.5,1.2c0,0.4-0.2,0.8-0.5,1.1l10.9-2.9l8.2-2.1c0,0,0,0,0,0
			C954.6,525.5,944.7,535,944.7,535z"/>
		<path class="st4" d="M925.2,544.9c-0.1-0.2-4.1-7.6,1.4-16.9c2.9-4.9,7.5-7.7,11.3-9.2c0.7-0.3,1.3-0.1,1.7,0.4
			c0.3,0.3,0.5,0.7,0.5,1.2c-0.2,0.4-0.3,0.7-0.5,1.1c0,0-8,3.9-11.9,11.5C924,540.4,925.2,544.8,925.2,544.9z"/>
		<path class="st4" d="M944.7,535c-1.4-0.2-2.9,0-4.4,0.4c2.1-6.5,6.3-12.4,10.2-16.8l8.2-2.1c0,0,0,0,0,0
			C954.6,525.5,944.7,535,944.7,535z"/>
	</g>
	<g>
		<path class="st3" d="M964.1,555.1c0.1,1.4-0.1,2.9-0.5,4.3c-2.2,7.3-10,14.8-10,14.8s0,0,0,0c0.2,0.1,7.5,4.3,16.9-0.8
			c5-2.7,7.9-7.2,9.6-11c0.3-0.7,0.1-1.3-0.3-1.8c-0.3-0.3-0.7-0.5-1.2-0.5c-0.4,0-0.8,0.1-1.1,0.5l3.3-10.8l2.4-8.1c0,0,0,0,0,0
			C974,545.6,964.1,555.1,964.1,555.1z"/>
		<path class="st4" d="M953.5,574.2c0.2,0.1,7.5,4.3,16.9-0.8c5-2.7,7.9-7.2,9.6-11c0.3-0.7,0.1-1.3-0.3-1.8
			c-0.3-0.3-0.7-0.5-1.2-0.5c-0.4,0.1-0.7,0.3-1.1,0.5c0,0-4.2,7.9-11.9,11.5C958,575.6,953.6,574.2,953.5,574.2z"/>
		<path class="st4" d="M964.1,555.1c0.1,1.4-0.1,2.9-0.5,4.3c6.6-1.8,12.7-5.9,17.2-9.6l2.4-8.1c0,0,0,0,0,0
			C974,545.6,964.1,555.1,964.1,555.1z"/>
	</g>
	<path class="st5" d="M982.3,542.4c-2.5,2.4-4.5,4.3-6.7,6c-2.2,1.7-4.4,3.1-7.4,4.7c-0.1,0.1-0.2,0.1-0.3,0.1l-4.9,2.2l-5.4,2.4
		l-10.3,4.6l-10.7-11.1l0.6-1.2l4.4-9l2.6-5.3c3.3-6.7,7.8-13,13.3-18.3c0.2-0.2,0.3-0.3,0.5-0.5c7.5-7.3,15-11.9,21.7-14.8
		c0.5-0.2,0.9-0.4,1.4-0.6c1.1-0.5,2.2-0.9,3.3-1.2c0.5-0.2,0.9-0.3,1.4-0.4c0.2-0.1,0.5-0.1,0.7-0.2c2.9-0.9,5.5-1.4,7.8-1.8
		c2.7-0.4,4.9-0.6,6.5-0.6c1.7,0,3,1.3,2.9,3c-0.2,3-0.8,8-2.9,14.1c-0.1,0.2-0.2,0.5-0.3,0.7c-0.2,0.4-0.3,0.9-0.5,1.3
		c-0.4,1-0.9,2.1-1.4,3.2c-0.2,0.4-0.4,0.9-0.6,1.3C994.7,527.9,989.9,535.2,982.3,542.4z"/>
	<path class="st6" d="M952.7,560.1l-5.4,2.4c-0.6-0.4-1.2-0.7-1.7-1.1c-0.5-0.3-0.9-0.7-1.4-1c-1.6-1.2-3-2.5-4.3-4
		c-1.3-1.5-2.4-3.2-3.3-5l2.6-5.3c1.3,2.2,2.7,4.3,4.3,6.2c1.9,2.2,4.1,4.2,6.5,6c0.4,0.3,0.8,0.6,1.2,0.9
		C951.7,559.5,952.2,559.8,952.7,560.1z"/>
	<path class="st4" d="M939.9,556.4c-1.3-1.5-2.4-3.2-3.3-5l2.6-5.3l2.4-4.8l2.6-5.3c3.3-6.7,7.8-13,13.3-18.3
		c0.2-0.2,0.3-0.3,0.5-0.5c10.2-9.8,20.3-14.8,28.4-17.3c2.9-0.9,5.5-1.4,7.8-1.8c0.3,2,1.2,2.3-1.5,5.6c0,0-23,5.6-34.7,21.4
		c-10.7,14.4-4.1,15.5-4.1,15.5l-10.3,11.7L939.9,556.4z"/>
	<g>
		<path class="st3" d="M937.1,562.8c-0.4,0.2-0.8,0-1-0.2c-0.2-0.3-0.3-0.6-0.2-1c6.5-14,26-27.7,34.2-33c0.4-0.3,0.9-0.2,1.1,0.1
			c0.3,0.3,0.4,0.7,0.1,1.2C965.7,537.9,951.3,556.9,937.1,562.8z"/>
		<path class="st4" d="M971.3,528.7l-35.2,33.9c-0.2-0.3-0.3-0.6-0.2-1c6.5-14,26-27.7,34.2-33C970.5,528.3,971,528.4,971.3,528.7z"
			/>
	</g>
	<g>
		<g>
			<path class="st6" d="M986.5,526c-3.4,3.3-8.9,3.2-12.2-0.2c-3.3-3.4-3.2-8.9,0.2-12.2c3.4-3.3,8.9-3.2,12.2,0.2
				C990,517.2,989.9,522.7,986.5,526z"/>
			<path class="st7" d="M985.3,524.7C985.2,524.7,985.2,524.7,985.3,524.7c-2.8,2.6-7,2.5-9.6-0.1c0,0,0,0-0.1-0.1
				c-0.4-0.5-0.8-1-1.1-1.5c-0.5-1-0.8-2.1-0.8-3.1c0-0.9,0.2-1.9,0.5-2.7c0.3-0.8,0.9-1.6,1.6-2.3c2.7-2.6,7-2.5,9.6,0.2
				c0.7,0.7,1.2,1.5,1.5,2.3c0.3,0.9,0.5,1.8,0.4,2.7c-0.1,1.1-0.4,2.2-0.9,3.1C986.1,523.8,985.7,524.3,985.3,524.7z"/>
			<path class="st8" d="M986.4,523.2c0.6-1,0.9-2,0.9-3.1c0-0.9-0.1-1.9-0.4-2.7c-0.3-0.8-0.8-1.6-1.5-2.3c-2.6-2.7-6.9-2.8-9.6-0.2
				c-0.1,0.1-0.3,0.3-0.4,0.4c2.7-2.2,6.7-2,9.2,0.6c0.7,0.7,1.2,1.5,1.5,2.3c0.3,0.9,0.5,1.8,0.4,2.7c-0.1,1.1-0.4,2.2-0.9,3.1
				c-0.2,0.4-0.5,0.7-0.8,1.1c0.1-0.1,0.2-0.2,0.4-0.3c0,0,0,0,0.1-0.1C985.7,524.3,986.1,523.8,986.4,523.2z"/>
		</g>
		<path class="st9" d="M985.2,518.2c0,0-0.1,3.9-2.9,5.5c-3.1,1.8-5.6,0-7.1-2.8c0,0,0,3.2,3.7,4.6
			C982.6,526.9,986.5,523.1,985.2,518.2z"/>
	</g>
	<g>
		<path class="st3" d="M1000.6,514.7c-5.6-4.1-10.4-9-14.3-14.8c6.2-1.9,11.3-2.3,14.2-2.4c1.1,0,1.9,0.5,2.5,1.2
			c0.3,0.5,0.5,1.1,0.5,1.8C1003.4,503.5,1002.7,508.5,1000.6,514.7z"/>
		<path class="st4" d="M1002,504.1c0.1-0.6,0.2-1,0.4-1.8c0.2-1.4,0-2-0.9-2c-1.7-0.1-3.9,6.8-2.1,9.5
			C1000.7,511.9,1001.7,506.5,1002,504.1z"/>
		<path class="st4" d="M1000.6,514.7c-5.6-4.1-10.4-9-14.3-14.8c6.2-1.9,11.3-2.3,14.2-2.4c1.1,0,1.9,0.5,2.5,1.2
			c-0.6,0-4.9-0.3-7.4,2.1C992.9,503.5,993.9,509.3,1000.6,514.7z"/>
	</g>
</g>
</svg>
